# xmcd CD database file
#
# Track frame offsets:
#	150
#	23025
#	46350
#	69225
#	98400
#	119400
#	142950
#	166575
#	191250
#	213450
#	234075
#	254550
#	276450
#	297975
#	320700
#
# Disc length: 4645 seconds
#
# Revision: 0
# Processed by: cddbd v1.5.1PL0 Copyright (c) Steve Scherf et al.
# Submitted via: CDex 1.50Beta5
#
DISCID=d212230f
DTITLE=Marc Anthony - From the beginning (Greatest hits)
DYEAR=1900
DGENRE=Salsa
TTITLE0=No me ames (con Jennifer López)
TTITLE1=No sabes cómo duele
TTITLE2=Contra la corriente
TTITLE3=Y hubo alguien
TTITLE4=Hasta ayer
TTITLE5=Te conozco bien
TTITLE6=Preciosa
TTITLE7=No me conoces
TTITLE8=Nadie como ella
TTITLE9=El último beso
TTITLE10=Si tú no te fueras
TTITLE11=Necesito amarte
TTITLE12=Te amaré
TTITLE13=Hsta que te conocí
TTITLE14=Vivir lo nuestro (con India)
EXTD=
EXTT0=
EXTT1=
EXTT2=
EXTT3=
EXTT4=
EXTT5=
EXTT6=
EXTT7=
EXTT8=
EXTT9=
EXTT10=
EXTT11=
EXTT12=
EXTT13=
EXTT14=
PLAYORDER=
